<?xml version="1.0" encoding="UTF-8"?>
<svg version="1.1" xmlns="http://www.w3.org/2000/svg" width="512" height="512">
<path d="M0 0 C1.00529719 -0.00297112 2.01059438 -0.00594224 3.04635513 -0.0090034 C6.41314454 -0.0176712 9.77989832 -0.01919703 13.146698 -0.02069092 C15.56158016 -0.02532047 17.97646158 -0.03034532 20.39134216 -0.03573608 C26.9514999 -0.04884942 33.51165024 -0.0553401 40.07181787 -0.05974674 C44.17224792 -0.06251391 48.27267563 -0.06675214 52.3731041 -0.07125092 C63.73793197 -0.08344057 75.10275797 -0.09374018 86.46759224 -0.09712601 C87.19436275 -0.09734557 87.92113326 -0.09756514 88.66992711 -0.09779136 C89.76261417 -0.09811878 89.76261417 -0.09811878 90.87737572 -0.09845281 C92.35338028 -0.09889626 93.82938484 -0.09934283 95.3053894 -0.09979248 C96.03753052 -0.10001391 96.76967163 -0.10023534 97.52399884 -0.10046348 C109.37838184 -0.10440868 121.23270326 -0.12185555 133.08706249 -0.145152 C145.27336656 -0.1689064 157.45963978 -0.18132973 169.64596736 -0.18249393 C176.48180744 -0.18340844 183.31756728 -0.18910409 190.15338516 -0.20731354 C196.58677426 -0.22439122 203.02005201 -0.22593666 209.45345879 -0.21717453 C211.80921143 -0.21640557 214.16497233 -0.22072817 216.52070427 -0.23063278 C248.44800008 -0.35695263 248.44800008 -0.35695263 261.20480347 11.14434814 C268.25302459 18.50875115 273.09709909 27.81840936 273.11916161 38.09831905 C273.12677342 39.9772118 273.12677342 39.9772118 273.13453901 41.89406198 C273.1351407 43.29185732 273.13563978 44.68965271 273.13604736 46.08744812 C273.14006167 47.56641428 273.14449984 49.04537934 273.14932692 50.52434307 C273.16130234 54.59896344 273.16694314 58.67357197 273.17150807 62.7482065 C273.17746067 67.13902526 273.18907155 71.52982984 273.19979858 75.92063904 C273.2243331 86.5313256 273.23895265 97.14201686 273.25185865 107.75272307 C273.25557026 110.74986042 273.25954353 113.7469973 273.26361132 116.74413419 C273.28885095 135.35595282 273.31090415 153.96777218 273.32333946 172.57960415 C273.32626917 176.89179423 273.32923083 181.20398429 273.33224487 185.51617432 C273.33299092 186.5879514 273.33373697 187.65972849 273.33450563 188.76398367 C273.34715378 206.11835987 273.38036863 223.47263349 273.42204671 240.82696175 C273.46448778 258.64515089 273.48803714 276.46328755 273.49326003 294.2815271 C273.49667201 304.28536965 273.50840194 314.289052 273.54136276 324.29284477 C273.56939449 332.81464329 273.58034897 341.33624876 273.5691673 349.8580898 C273.56398834 354.20394841 273.56681745 358.54940298 273.59163284 362.89520264 C273.61419557 366.87989806 273.61333166 370.86390085 273.59442897 374.84860898 C273.5916387 376.28412991 273.59717308 377.71969852 273.61224191 379.15514307 C273.7362607 391.74697672 270.81363525 402.80549611 261.98214722 412.14044189 C248.91708425 424.50087225 234.11607096 423.86394283 217.21847534 423.78741455 C214.7041816 423.7941968 212.18989283 423.80310334 209.6756134 423.81396484 C203.57701998 423.83433651 197.47883011 423.8314393 191.38023174 423.81690164 C186.42016447 423.80557137 181.46018333 423.80409478 176.50010681 423.80952072 C175.79192953 423.81028689 175.08375224 423.81105305 174.35411504 423.81184243 C172.9150932 423.81344119 171.47607138 423.81506226 170.03704959 423.81670539 C156.5695852 423.83093482 143.10229148 423.81461441 129.63485509 423.78770356 C118.09998035 423.76536727 106.56535727 423.76924819 95.03048706 423.79229736 C81.60849417 423.81910517 68.18665054 423.82956178 54.76463461 423.81423604 C53.3311523 423.81264344 51.89766997 423.81107158 50.46418762 423.80952072 C49.75903968 423.80874934 49.05389174 423.80797797 48.32737568 423.80718321 C43.37803939 423.80288111 38.42879845 423.81012044 33.47947693 423.82191849 C26.80782545 423.83747385 20.13671992 423.82626817 13.4650898 423.7974472 C11.0222661 423.79085774 8.5794023 423.79269719 6.13659477 423.80376053 C-9.63165323 423.86856901 -22.92061132 423.58524786 -35.01785278 412.14044189 C-44.49752473 402.1203611 -46.76683744 390.47188847 -46.64604187 377.09768677 C-46.65109688 375.60952023 -46.65833303 374.1213598 -46.66754001 372.63321316 C-46.68635352 368.57485696 -46.67429092 364.51710879 -46.65681708 360.45876861 C-46.64338761 356.07016782 -46.65889998 351.68165276 -46.67063904 347.2930603 C-46.6889776 338.70863405 -46.68052906 330.12443604 -46.66255081 321.54001699 C-46.64850298 314.56192091 -46.6446367 307.58388661 -46.64799309 300.60577774 C-46.64847053 299.6111608 -46.64894797 298.61654386 -46.64943988 297.59178702 C-46.65046625 295.57102272 -46.65152161 293.55025844 -46.65260565 291.52949418 C-46.66116482 273.67824759 -46.64452214 255.82711095 -46.61477661 237.97589111 C-46.58593245 220.66529728 -46.57886081 203.35486177 -46.5942688 186.04425049 C-46.61103866 167.17785818 -46.61505782 148.31154096 -46.59755844 129.44514668 C-46.59571411 127.4325893 -46.59387938 125.42003191 -46.59205437 123.40747452 C-46.59114228 122.4173418 -46.59023019 121.42720907 -46.58929046 120.40707233 C-46.58369062 113.43853249 -46.58698701 106.47002939 -46.59359932 99.50149155 C-46.60133928 91.00765617 -46.59455575 82.5139765 -46.56942428 74.02017246 C-46.55694566 69.68875258 -46.55076287 65.35757491 -46.56196594 61.02614594 C-46.57203705 57.05738092 -46.56348811 53.08909805 -46.54038476 49.1203915 C-46.53524316 47.68855755 -46.53675528 46.25668008 -46.54577941 44.82486533 C-46.62299739 31.45585313 -43.27133165 21.22335444 -34.27566528 11.19903564 C-24.64686445 1.94979335 -12.81408404 -0.01186995 0 0 Z M-14.89285278 33.64044189 C-17.31524707 36.87030094 -17.14469923 40.05924793 -17.14928055 43.93046379 C-17.15312169 45.1455751 -17.15696284 46.36068641 -17.16092038 47.61261928 C-17.1601401 48.96807478 -17.1592613 50.32353022 -17.15829468 51.6789856 C-17.16087763 53.11344264 -17.1638906 54.54789896 -17.16729808 55.98235428 C-17.17537936 59.93367446 -17.17715828 63.88497649 -17.17789555 67.83630395 C-17.17974411 72.09406031 -17.1872904 76.3518072 -17.19403076 80.60955811 C-17.20762208 89.92346743 -17.21363989 99.23737245 -17.21804142 108.55129004 C-17.22080219 114.36410075 -17.22503921 120.1769098 -17.22954559 125.98971939 C-17.24173873 142.07596927 -17.25203833 158.16221781 -17.25542068 174.24847221 C-17.25564025 175.27833776 -17.25585982 176.3082033 -17.25608604 177.36927689 C-17.25630431 178.40163719 -17.25652259 179.4339975 -17.25674748 180.49764144 C-17.25719095 182.58967519 -17.25763752 184.68170893 -17.25808716 186.77374268 C-17.25830859 187.81146856 -17.25853002 188.84919444 -17.25875816 189.91836657 C-17.26270785 206.74071985 -17.28016689 223.56302986 -17.30344668 240.38536642 C-17.32714132 257.64642669 -17.33962165 274.90746523 -17.3407886 292.16854203 C-17.34170637 301.86415407 -17.3474842 311.55970971 -17.36560822 321.25530624 C-17.38098368 329.50974555 -17.38614477 337.76411104 -17.37787011 346.01856194 C-17.37395467 350.23181225 -17.37493661 354.44491377 -17.38892746 358.6581459 C-17.40161288 362.5134229 -17.40051641 366.36843849 -17.38833675 370.22371484 C-17.38637042 371.62007345 -17.38950115 373.01645024 -17.39818111 374.41278325 C-17.4092189 376.30807133 -17.40002428 378.20344513 -17.38978958 380.09873772 C-17.39038667 381.1523543 -17.39098376 382.20597088 -17.39159894 383.29151523 C-16.95725552 386.60235209 -15.98152424 388.4608639 -14.01785278 391.14044189 C-8.91133513 394.69680055 -4.09904142 394.5647616 1.88851929 394.52139282 C3.37831385 394.52841278 3.37831385 394.52841278 4.89820528 394.53557456 C8.22384809 394.54753367 11.54907953 394.53806351 14.87472534 394.52862549 C17.25993592 394.53269077 19.64514461 394.5380324 22.03034973 394.54455566 C27.83488928 394.55681907 33.63929827 394.55501867 39.44384181 394.54631774 C44.16190666 394.53953862 48.87993889 394.53862546 53.5980072 394.54188919 C54.26987471 394.54234889 54.94174221 394.54280859 55.63396934 394.54328222 C56.99891675 394.54424141 58.36386416 394.54521405 59.72881156 394.54619999 C72.52360731 394.55475168 85.31833855 394.54492325 98.11312371 394.52879889 C109.08821464 394.5153959 120.06321036 394.51772405 131.03829956 394.53155518 C143.78775903 394.54761492 156.53716198 394.55392772 169.28663015 394.54471838 C170.64651584 394.54376275 172.00640153 394.54281964 173.36628723 394.54188919 C174.03535183 394.54142636 174.70441642 394.54096354 175.3937557 394.54048669 C180.10536735 394.53789798 184.81694311 394.54226522 189.52854919 394.54932785 C195.87166948 394.55798802 202.21460982 394.55199273 208.55771065 394.53464508 C210.88695031 394.5306752 213.2162051 394.53182283 215.54543877 394.53843307 C218.72242264 394.54661855 221.89882821 394.53636269 225.07577515 394.52139282 C225.99970582 394.52808499 226.92363648 394.53477715 227.87556505 394.54167211 C232.93610896 394.49535254 236.73599793 394.20093839 240.98214722 391.14044189 C243.48467972 386.96241942 244.35741348 383.86061185 244.35967064 379.01530457 C244.36749388 377.8018036 244.37531712 376.58830263 244.38337743 375.33802891 C244.37689196 373.99994842 244.37012202 372.66186928 244.36309814 371.3237915 C244.36655591 369.89570476 244.37132128 368.46762069 244.37727988 367.0395422 C244.38980322 363.11966469 244.38361348 359.2000063 244.37432122 355.280128 C244.36753653 351.05102523 244.37800908 346.82196027 244.38626099 342.59286499 C244.3996067 334.30980432 244.39671685 326.02682517 244.38802306 317.7437613 C244.38125023 311.01244579 244.38032807 304.28115314 244.38359451 297.54983521 C244.38405421 296.59210549 244.38451391 295.63437578 244.38498754 294.64762396 C244.38594671 292.70206554 244.38691935 290.75650713 244.38790531 288.81094873 C244.39646166 270.56384276 244.38662123 252.31678199 244.37050422 234.06968343 C244.35710081 218.40997872 244.35942884 202.75034072 244.3732605 187.09063721 C244.38931198 168.90919807 244.39563767 150.72779857 244.38642371 132.54635334 C244.38546805 130.60791843 244.38452494 128.66948351 244.38359451 126.73104858 C244.38290027 125.30039665 244.38290027 125.30039665 244.38219201 123.84084266 C244.37960082 117.11695876 244.38397589 110.39309998 244.39103317 103.66921997 C244.39944357 95.47598901 244.39717773 87.28284428 244.38119094 79.08962321 C244.37330202 74.90863978 244.37022718 70.72780017 244.3801384 66.54681778 C244.38907298 62.71996785 244.384173 58.89339516 244.36820574 55.0665704 C244.36485268 53.68172897 244.36656383 52.29686415 244.3738331 50.91203773 C244.38295553 49.02990108 244.37180436 47.14769887 244.35967064 45.26557922 C244.35918358 44.22004411 244.35869653 43.17450899 244.35819471 42.09729099 C243.80341318 37.73506203 242.266289 34.34173582 239.04464722 31.32794189 C235.69764422 29.40087956 232.59792206 29.01562263 228.77695751 29.00901413 C227.52268925 29.00325241 227.52268925 29.00325241 226.24308223 28.9973743 C225.32957179 28.99824078 224.41606135 28.99910726 223.47486877 29 C222.50042102 28.99702888 221.52597327 28.99405776 220.5219968 28.9909966 C217.24788139 28.98230611 213.97380254 28.98080105 210.69967651 28.97930908 C208.35579347 28.97468119 206.01191119 28.96965657 203.66802979 28.96426392 C197.29403326 28.95113592 190.92004727 28.94469428 184.54603934 28.94025326 C180.56526087 28.93732344 176.58448529 28.93321883 172.60370827 28.92874908 C161.57951224 28.91655814 150.55531815 28.90625823 139.53111553 28.90287399 C138.82575786 28.90265443 138.12040019 28.90243486 137.39366804 28.90220864 C136.68663609 28.90199036 135.97960414 28.90177209 135.25114697 28.90154719 C133.81846281 28.90110373 132.38577864 28.90065717 130.95309448 28.90020752 C130.24243573 28.89998609 129.53177698 28.89976466 128.79958311 28.89953652 C117.28442025 28.89558851 105.76932066 28.87813362 94.25418224 28.854848 C82.42843951 28.8311275 70.60272853 28.81867184 58.77696162 28.81750607 C52.13855064 28.81658975 45.50021255 28.81052905 38.86182213 28.79268646 C32.618058 28.77623105 26.37445051 28.77403806 20.13067245 28.78282547 C17.83893604 28.78359717 15.54719129 28.77923567 13.255476 28.76936722 C10.12692222 28.75668516 6.99892634 28.76250448 3.87037659 28.77294922 C2.51014918 28.76086461 2.51014918 28.76086461 1.12244242 28.74853587 C-5.05242148 28.7967483 -9.92721137 29.66792876 -14.89285278 33.64044189 Z " fill="#000000" transform="translate(97.01785278320313,88.85955810546875)"/>
<path d="M0 0 C2.51429374 -0.00678225 5.02858251 -0.01568879 7.54286194 -0.02655029 C13.64145536 -0.04692196 19.73964523 -0.04402474 25.8382436 -0.02948709 C30.79831087 -0.01815682 35.75829201 -0.01668023 40.71836853 -0.02210617 C41.42654582 -0.02287234 42.1347231 -0.0236385 42.8643603 -0.02442788 C44.30338214 -0.02602664 45.74240396 -0.02764771 47.18142575 -0.02929084 C60.64889014 -0.04352027 74.11618386 -0.02719986 87.58362025 -0.00028901 C99.11849499 0.02204728 110.65311807 0.01816636 122.18798828 -0.00488281 C135.60998117 -0.03169062 149.0318248 -0.04214723 162.45384073 -0.02682149 C163.88732304 -0.02522889 165.32080537 -0.02365703 166.75428772 -0.02210617 C167.81200963 -0.0209491 167.81200963 -0.0209491 168.89109966 -0.01976866 C173.84043595 -0.01546656 178.7896769 -0.02270589 183.73899841 -0.03450394 C190.41064989 -0.0500593 197.08175542 -0.03885362 203.75338554 -0.01003265 C206.19620924 -0.00344319 208.63907304 -0.00528264 211.08188057 -0.01634598 C226.85012857 -0.08115446 240.13908667 0.20216669 252.23632812 11.64697266 C261.71600007 21.66705345 263.98531278 33.31552608 263.86451721 46.68972778 C263.86957222 48.17789432 263.87680837 49.66605475 263.88601536 51.15420139 C263.90482886 55.21255759 263.89276626 59.27030576 263.87529242 63.32864594 C263.86186295 67.71724673 263.87737532 72.1057618 263.88911438 76.49435425 C263.90745294 85.07878051 263.8990044 93.66297851 263.88102616 102.24739756 C263.86697832 109.22549365 263.86311205 116.20352794 263.86646843 123.18163681 C263.86694587 124.17625375 263.86742331 125.17087069 263.86791522 126.19562753 C263.86894159 128.21639183 263.86999695 130.23715611 263.87108099 132.25792037 C263.87964017 150.10916696 263.86299748 167.9603036 263.83325195 185.81152344 C263.80440779 203.12211727 263.79733615 220.43255278 263.81274414 237.74316406 C263.829514 256.60955637 263.83353316 275.47587359 263.81603378 294.34226787 C263.81418945 296.35482525 263.81235472 298.36738264 263.81052971 300.37994003 C263.80961762 301.37007276 263.80870553 302.36020548 263.8077658 303.38034222 C263.80216596 310.34888206 263.80546235 317.31738516 263.81207466 324.285923 C263.81981462 332.77975838 263.81303109 341.27343805 263.78789962 349.76724209 C263.775421 354.09866197 263.76923821 358.42983964 263.78044128 362.76126862 C263.79051239 366.73003363 263.78196345 370.6983165 263.7588601 374.66702305 C263.75371851 376.098857 263.75523062 377.53073447 263.76425476 378.96254922 C263.84147273 392.33156142 260.48980699 402.56406011 251.49414062 412.58837891 C243.37190371 420.39044465 232.3585073 424.05365131 221.18945312 423.86181641 C216.67094848 423.3647809 213.90005883 421.38245803 210.92382812 418.08447266 C207.81749745 413.59755058 207.60304019 410.02112443 208.23632812 404.64697266 C209.9635359 399.7375723 212.62870058 396.98369805 217.23632812 394.64697266 C220.27595591 393.89205853 223.31349337 393.33186509 226.39648438 392.78369141 C229.37431738 391.59173899 230.72130897 390.50571833 232.41267133 387.79310524 C234.35141998 382.74147247 233.77336892 377.08476026 233.73080444 371.74766541 C233.73398205 370.31061525 233.73891068 368.87356807 233.74543726 367.43652922 C233.75825666 363.49184473 233.74613448 359.54757118 233.7299087 355.60291374 C233.71674802 351.3472468 233.72665308 347.09162555 233.7336731 342.83595276 C233.74375582 334.50105677 233.73247568 326.16631951 233.71397249 317.83144324 C233.69320516 308.12794423 233.69334485 298.42447954 233.69431765 288.72096247 C233.69531893 271.40972597 233.67699449 254.09856336 233.64794922 236.78735352 C233.61976996 219.98362888 233.60560786 203.17996929 233.60693359 186.3762207 C233.60701351 185.3411496 233.60709342 184.30607849 233.60717575 183.2396416 C233.60729682 181.6897371 233.60729682 181.6897371 233.60742033 180.1085214 C233.6087996 160.98556259 233.59702281 141.86263146 233.57911389 122.73968161 C233.57307822 115.97325769 233.57095442 109.20683884 233.57004929 102.44041252 C233.56868576 94.19702388 233.55976667 85.95368187 233.54138367 77.71031301 C233.53214266 73.50315703 233.52605854 69.29606072 233.52857208 65.08889389 C233.53076049 61.23932201 233.52373574 57.3898822 233.50927503 53.54033787 C233.50564562 52.14609495 233.50539048 50.75183841 233.50880961 49.35759496 C233.51293735 47.46515998 233.50361279 45.57270987 233.49359703 43.6802969 C233.49148376 42.10231136 233.49148376 42.10231136 233.48932779 40.49244732 C233.22236713 37.48995402 232.58858455 35.33331193 231.23632812 32.64697266 C226.80738804 29.78735762 221.45619297 30.36873242 216.36755371 30.39300537 C215.36633909 30.38988539 214.36512446 30.38676541 213.33357 30.38355088 C209.97492448 30.37556648 206.61645941 30.38189634 203.2578125 30.38818359 C200.85142409 30.38547393 198.44503651 30.38191314 196.03865051 30.37756348 C190.17885591 30.36938266 184.31910825 30.37059093 178.45931494 30.37638876 C173.69688663 30.38090573 168.93447268 30.381518 164.17204285 30.37934113 C163.49420041 30.37903466 162.81635797 30.37872819 162.11797485 30.37841244 C160.74094617 30.37777299 159.3639175 30.37712456 157.98688883 30.37646726 C145.07482613 30.37076433 132.16279183 30.37732128 119.25073379 30.38806799 C108.17186169 30.39700347 97.0930315 30.39545142 86.01416016 30.38623047 C73.14826406 30.37552719 60.28239286 30.37131364 47.41649294 30.377455 C46.0445331 30.37809209 44.67257325 30.37872084 43.3006134 30.37934113 C42.62558489 30.37964968 41.95055637 30.37995823 41.25507244 30.38027613 C36.49842662 30.3820029 31.74179658 30.37908836 26.9851532 30.37438202 C20.58299735 30.3681868 14.18090208 30.37259832 7.77875328 30.38417053 C5.42651692 30.38681922 3.07427391 30.38604849 0.72204018 30.3816452 C-2.48369636 30.37619664 -5.68917729 30.38301572 -8.89489746 30.39300537 C-9.83020499 30.38854393 -10.76551251 30.38408248 -11.72916269 30.37948585 C-17.97944427 30.4122305 -17.97944427 30.4122305 -23.76367188 32.64697266 C-25.18383672 35.03882924 -25.69961732 37.25545556 -26.14648438 39.98681641 C-27.14888914 46.04680884 -28.27084433 49.36808928 -32.76367188 53.64697266 C-37.02081285 56.19247963 -40.91812499 56.30884331 -45.76367188 55.64697266 C-50.6351133 53.91719019 -53.53928701 51.30387196 -55.76367188 46.64697266 C-57.40752413 34.90712778 -54.65730486 24.99127224 -47.95117188 15.27197266 C-35.19701628 -0.32361508 -18.55992194 -0.08405686 0 0 Z " fill="#000000" transform="translate(197.763671875,-0.64697265625)"/>
</svg>
