<svg width="160" height="163" viewBox="0 0 160 163" fill="none" xmlns="http://www.w3.org/2000/svg">
<path fill-rule="evenodd" clip-rule="evenodd" d="M131.289 34.5006C134.321 38.1196 153.335 61.6292 146.067 73.7446C146.067 73.7446 158.629 113.771 145.776 119.323C145.776 119.323 150.158 139.773 143.146 140.358C143.146 140.358 144.602 150.465 144.323 159.704C141.502 159.708 137.115 159.623 131.846 159.521C117.72 159.249 97.2482 158.854 83.5846 159.699C80.8379 159.869 77.7847 160.065 74.538 160.273C54.8532 161.536 28.0533 163.256 19.2974 162.398C18.5929 162.329 17.8458 162.249 17.0641 162.159C16.8416 153.014 18.4677 142.696 18.4677 142.696C6.41595 146.64 14.5235 109.39 14.5235 109.39C-5.41664 117.497 20.8776 48.9128 20.8776 48.9128C15.6195 46.7209 17.591 38.3941 28.9852 28.3151C40.3794 18.236 62.218 16.9208 62.218 16.9208C62.2892 16.9119 62.3656 16.9042 62.4415 16.8966C62.4964 16.891 62.551 16.8855 62.6034 16.8796C64.536 14.5204 70.2089 7.96362 73.9775 7.42508C77.8228 6.87593 77.0792 13.8051 76.7303 16.1042C76.821 16.1018 76.9116 16.1007 77.0022 16.0995L77.0026 16.0995C78.3919 13.5659 83.405 5.30155 89.534 5.67276C95.1504 6.01215 94.1593 12.8117 93.4357 15.839C99.9194 15.667 126.702 16.0571 130.857 33.9468L130.914 34.0197C131.04 34.179 131.165 34.3381 131.289 34.5006Z" fill="#76B73A"/>
<path d="M115.31 14.2352C120.47 15.6953 125.335 18.2053 129.802 21.3081C130.117 18.4068 130.151 15.7377 129.955 13.2866C126.359 10.588 122.393 8.38431 118.07 7.07861C117.41 9.31291 116.399 11.8336 115.31 14.2352Z" fill="#EEEAC7"/>
<path d="M118.484 5.5537C118.376 6.03685 118.222 6.55772 118.068 7.07976C122.393 8.38546 126.357 10.5891 129.954 13.2877C129.691 9.9952 129.003 7.10451 127.906 4.67813C124.84 -2.11551 120.019 -1.23876 118.484 5.5537Z" fill="#EACA00"/>
<path d="M110.596 23.5212L126.811 34.9154C128.38 29.9637 129.355 25.4173 129.801 21.3081C125.335 18.2053 120.469 15.6953 115.308 14.2352C113.074 19.1634 110.596 23.5212 110.596 23.5212Z" fill="#EACA00"/>
<path d="M44.1751 14.2352C39.0148 15.6953 34.1502 18.2053 29.684 21.3081C29.3693 18.4068 29.3352 15.7377 29.5308 13.2866C33.1273 10.588 37.0928 8.38431 41.4164 7.07861C42.0751 9.31291 43.0862 11.8336 44.1751 14.2352Z" fill="#EEEAC7"/>
<path d="M40.9992 5.5537C41.1077 6.03685 41.262 6.55772 41.4152 7.07976C37.0904 8.38546 33.1262 10.5891 29.5296 13.2877C29.7924 9.9952 30.4806 7.10451 31.5777 4.67813C34.6452 -2.11551 39.4661 -1.23876 40.9992 5.5537Z" fill="#EACA00"/>
<path d="M48.8876 23.5212L32.6725 34.9154C31.104 29.9637 30.1282 25.4173 29.6828 21.3081C34.149 18.2053 39.0148 15.6953 44.1739 14.2352C46.4106 19.1634 48.8876 23.5212 48.8876 23.5212Z" fill="#EACA00"/>
<path opacity="0.2" fill-rule="evenodd" clip-rule="evenodd" d="M102.262 32.7907C101.298 35.4575 98.6444 36.9423 96.3335 36.1068C94.0226 35.2713 92.9302 32.4337 93.893 29.7669C94.8557 27.1001 97.5107 25.6153 99.8216 26.4508C102.134 27.2863 103.226 30.1251 102.262 32.7907ZM44.9246 40.3398C44.9752 40.3597 45.0566 40.2944 45.0735 40.2753L45.0613 40.3057L45.0248 40.3988L44.9517 40.6203L44.8244 41.0905C44.742 41.4075 44.6748 41.7316 44.6147 42.0556C44.4933 42.7049 44.4167 43.3625 44.3484 44.0165C44.2187 45.3258 44.2435 46.6456 44.4509 47.9112C44.6418 49.1769 45.0967 50.3883 45.8626 51.3322C46.6274 52.2691 47.7257 52.9148 48.9277 53.1906C50.1144 53.5005 51.34 53.2707 52.3499 52.5861C53.3669 51.9096 54.1753 50.8703 54.8423 49.7602C56.1326 47.4964 56.9882 44.9169 57.5444 42.3255L57.5479 42.3114C57.5797 42.164 57.7247 42.0709 57.872 42.1016C58.0134 42.1322 58.1053 42.2666 58.0841 42.408C57.6882 45.1078 57.0117 47.7804 55.6954 50.2433C55.0202 51.4512 54.1988 52.6603 52.9638 53.4946C51.7607 54.3537 50.1109 54.6766 48.6767 54.3077C47.2603 54.0002 45.8732 53.2448 44.9623 52.0569C44.0443 50.8856 43.5635 49.4668 43.3762 48.0739C43.1888 46.6715 43.263 45.2716 43.461 43.9081C43.5565 43.2246 43.712 42.5529 43.8911 41.8883C43.983 41.556 44.0809 41.2272 44.1963 40.8996C44.2506 40.7358 44.3165 40.5744 44.3849 40.4105L44.4992 40.1631L44.5069 40.1479L44.5145 40.1325C44.5301 40.1009 44.5454 40.0699 44.5723 40.0287L44.6194 39.9545C44.6288 39.9227 44.7702 39.8025 44.8598 39.7966C45.0095 39.7789 45.145 39.8861 45.1627 40.0358C45.1741 40.1273 45.1392 40.2131 45.0765 40.2704C45.0764 40.2702 45.0761 40.2701 45.0755 40.2703L45.0748 40.2721C45.0344 40.3084 44.9827 40.333 44.9246 40.3398ZM45.0748 40.2721L45.0765 40.2704C45.0768 40.271 45.0757 40.2728 45.0735 40.2753L45.0748 40.2721ZM44.2328 140.41C44.1633 143.777 44.2588 147.175 44.782 150.473C45.0401 152.118 45.4136 153.75 46.0606 155.236C46.7134 156.69 47.6774 158.061 49.0974 158.491C49.7844 158.714 50.581 158.714 51.3176 158.543C52.0541 158.374 52.7387 158.014 53.3279 157.512C54.5076 156.495 55.3372 155.036 55.9547 153.513C57.1366 150.425 57.7082 147.045 57.9273 143.701L57.9285 143.687C57.938 143.536 58.0688 143.423 58.2184 143.432C58.3634 143.441 58.4753 143.564 58.473 143.708C58.427 147.133 58.0487 150.574 56.8691 153.865C56.2575 155.485 55.4409 157.123 54.0385 158.345C52.6433 159.572 50.627 160.14 48.7592 159.583C47.8271 159.305 47.0151 158.715 46.407 158.015C45.7895 157.315 45.3524 156.51 44.9976 155.695C44.3094 154.051 43.9512 152.339 43.7037 150.63C43.2724 147.201 43.309 143.768 43.6872 140.363C43.7037 140.214 43.8392 140.105 43.9889 140.122C44.1303 140.137 44.234 140.258 44.2317 140.398L44.2328 140.41ZM115.205 45.6239C115.248 45.6198 115.284 45.5413 115.289 45.5234L115.291 45.5508L115.298 45.6298L115.324 45.8148L115.399 46.1966C115.452 46.4523 115.52 46.7092 115.59 46.9626C115.733 47.4705 115.911 47.9689 116.093 48.4603C116.463 49.4443 116.949 50.38 117.545 51.2131C118.131 52.0522 118.884 52.7592 119.767 53.1646C120.642 53.557 121.666 53.6584 122.612 53.3956C123.587 53.2306 124.371 52.5966 124.847 51.7564C125.323 50.9091 125.56 49.8933 125.643 48.8586C125.751 46.7799 125.473 44.6304 124.948 42.5776L124.946 42.567C124.916 42.4504 124.986 42.3313 125.102 42.3019C125.214 42.2736 125.328 42.3372 125.364 42.4456C126.043 44.5185 126.482 46.6738 126.427 48.9034C126.373 50.01 126.183 51.1613 125.607 52.1936C125.057 53.2235 123.997 54.0767 122.832 54.2853C121.713 54.6023 120.449 54.5233 119.378 54.0037C118.306 53.4887 117.46 52.6426 116.832 51.7116C116.202 50.7736 115.76 49.7448 115.419 48.6984C115.246 48.1752 115.119 47.639 115.013 47.1004C114.961 46.8306 114.915 46.5595 114.882 46.285C114.863 46.1483 114.853 46.0092 114.844 45.8678L114.838 45.6498C114.839 45.6381 114.839 45.627 114.839 45.6159C114.839 45.5899 114.839 45.5635 114.843 45.5272L114.851 45.4565C114.847 45.4306 114.906 45.2939 114.967 45.2586C115.068 45.1926 115.203 45.222 115.269 45.3222C115.309 45.3836 115.314 45.4576 115.289 45.5207C115.289 45.5198 115.289 45.5196 115.289 45.5202L115.289 45.5223C115.273 45.5628 115.244 45.5987 115.205 45.6239ZM115.289 45.5223L115.289 45.5207L115.289 45.5234L115.289 45.5223ZM108.441 128.886C107.173 126.536 106.543 123.784 106.29 121.076L106.285 121.058C106.271 120.914 106.146 120.804 105.999 120.812C105.849 120.82 105.734 120.949 105.742 121.1C105.895 123.904 106.355 126.723 107.655 129.315C108.331 130.577 109.303 131.8 110.695 132.475C111.38 132.793 112.145 133.015 112.901 133.004C113.654 133.101 114.448 132.924 115.16 132.627C116.618 132.008 117.61 130.752 118.302 129.488C118.995 128.2 119.439 126.829 119.781 125.452C120.177 123.797 120.418 122.13 120.547 120.452C121.139 122.062 121.869 123.618 122.793 125.098C123.578 126.306 124.504 127.483 125.774 128.32C127.02 129.168 128.666 129.566 130.183 129.16C130.949 128.966 131.676 128.513 132.173 127.895C132.677 127.279 132.974 126.558 133.164 125.842C133.538 124.398 133.527 122.943 133.416 121.524C133.158 118.682 132.488 115.936 131.61 113.25C131.564 113.111 131.415 113.032 131.274 113.073C131.13 113.116 131.046 113.267 131.089 113.412L131.092 113.422C131.87 116.078 132.449 118.832 132.608 121.578C132.667 122.945 132.644 124.333 132.289 125.601C131.959 126.873 131.153 127.951 129.942 128.207C128.721 128.504 127.411 128.179 126.365 127.442C125.3 126.71 124.443 125.646 123.719 124.509C122.294 122.209 121.319 119.564 120.654 116.929C120.591 116.681 120.366 116.496 120.098 116.496C119.781 116.496 119.523 116.753 119.523 117.069C119.519 119.779 119.253 122.544 118.659 125.183C118.345 126.498 117.932 127.791 117.317 128.955C116.701 130.105 115.857 131.148 114.728 131.63C114.169 131.858 113.567 132.027 112.933 131.955C112.301 131.985 111.692 131.815 111.125 131.574C109.984 131.061 109.094 130.037 108.441 128.886ZM30.9731 124.008C29.744 127.409 26.3596 129.303 23.4112 128.239C20.4639 127.173 19.0698 123.553 20.2989 120.152C21.528 116.751 24.9137 114.858 27.8609 115.922C30.8082 116.987 32.2011 120.607 30.9731 124.008ZM33.0626 111.78C35.3735 112.615 38.0285 111.13 38.9913 108.464C39.9541 105.797 38.8616 102.959 36.5508 102.124C34.2399 101.288 31.5849 102.773 30.6221 105.44C29.6593 108.106 30.7517 110.945 33.0626 111.78ZM41.9928 128.154C44.3037 128.989 46.9575 127.505 47.9215 124.838C48.8854 122.171 47.793 119.333 45.4809 118.498C43.17 117.662 40.515 119.147 39.5523 121.814C38.5895 124.481 39.6819 127.318 41.9928 128.154ZM138.749 102.848C141.06 103.684 143.715 102.199 144.677 99.5322C145.64 96.8666 144.548 94.0277 142.237 93.1922C139.926 92.3567 137.271 93.8416 136.308 96.5083C135.345 99.1751 136.438 102.013 138.749 102.848Z" fill="#EEEAC7"/>
<path fill-rule="evenodd" clip-rule="evenodd" d="M4.10863 132.702C-8.38977 127.553 13.4394 85.2918 14.3032 83.8518L28.6403 162.609C24.6862 162.664 21.4477 162.609 19.2974 162.398C14.4243 161.92 7.51412 160.917 1.17847 159.684C-0.937744 153.179 2.61781 139.79 4.07799 134.839C4.08506 134.12 4.09331 133.406 4.10863 132.702ZM156.874 159.137C156.651 153.761 155.998 149.295 155.998 149.295C162.35 151.073 157.656 134.96 156.324 130.728C156.314 130.43 156.301 130.138 156.288 129.845C156.282 129.724 156.277 129.603 156.272 129.482C166.352 121.413 147.536 86.3442 146.253 83.9838C146.208 83.9001 146.181 83.8518 146.181 83.8518L132.405 159.532C138.078 159.641 142.674 159.728 145.309 159.699C148.121 159.668 152.311 159.47 156.874 159.137Z" fill="#669E2A"/>
<path d="M74.441 88.3478C74.2688 97.0013 67.1138 103.877 58.4603 103.704C49.8068 103.531 42.931 96.3765 43.1032 87.7229C43.2754 79.0694 50.4304 72.1936 59.0839 72.3671C67.7387 72.5393 74.6132 79.6943 74.441 88.3478Z" fill="white"/>
<path d="M66.7644 88.1946C66.6638 93.2198 62.5086 97.2127 57.4835 97.1122C52.4583 97.0116 48.4653 92.8577 48.5659 87.8313C48.6652 82.8061 52.8204 78.8131 57.8455 78.9137C62.8719 79.0143 66.8637 83.1694 66.7644 88.1946Z" fill="#373131"/>
<path d="M112.809 97.6067C119.019 91.5775 119.165 81.6558 113.136 75.4457C107.107 69.2357 97.1854 69.0891 90.9753 75.1182C84.7653 81.1473 84.6187 91.0691 90.6478 97.2791C96.6769 103.489 106.599 103.636 112.809 97.6067Z" fill="white"/>
<path d="M110.978 86.5451C110.877 91.5702 106.723 95.5632 101.697 95.4626C96.6715 95.3621 92.6785 91.2069 92.7791 86.1817C92.8797 81.1566 97.0348 77.1636 102.06 77.2642C107.085 77.3648 111.078 81.5199 110.978 86.5451Z" fill="#373131"/>
<path d="M41.1457 95.3506C57.1717 96.4871 66.171 104.471 66.171 104.471L62.6671 111.759L38.4867 104.282L41.1457 95.3506Z" fill="#76B73A"/>
<path d="M118.396 95.5103C102.369 96.6468 93.3712 104.63 93.3712 104.63L96.8751 111.918L121.055 104.442L118.396 95.5103Z" fill="#76B73A"/>
<path d="M47.437 66.4342C45.218 71.5172 50.1878 78.5929 58.5384 82.2376C66.8889 85.8824 75.4569 84.7182 77.6747 79.6352C79.8937 74.5522 74.9226 67.4765 66.5733 63.8318C58.224 60.1858 49.656 61.3512 47.437 66.4342Z" fill="#76B73A"/>
<path d="M49.4122 73.4888C50.5525 75.5066 52.1731 77.2026 54.0074 78.6007C55.8216 80.0314 57.8809 81.1378 60.0207 82.0216C62.1693 82.8891 64.4437 83.4423 66.7419 83.6321C69.0313 83.7906 71.3974 83.5781 73.4643 82.5685L73.4744 82.5635C73.6491 82.478 73.8591 82.5509 73.9446 82.7244C74.0238 82.8866 73.9672 83.079 73.8189 83.1733C71.7017 84.5348 69.1319 84.9497 66.6815 84.8894C64.2048 84.8554 61.7771 84.2595 59.4826 83.3895C57.1768 82.5321 55.0333 81.2535 53.1298 79.6857C51.2628 78.0877 49.6259 76.1139 48.7735 73.7742C48.7069 73.5919 48.8012 73.3907 48.9835 73.3241C49.1469 73.2637 49.3267 73.3342 49.4097 73.4813L49.4122 73.4888Z" fill="#373131"/>
<path d="M113.698 57.5076C115.917 62.5905 110.946 69.6662 102.597 73.311C94.2461 76.9557 85.6781 75.7915 83.4603 70.7085C81.2413 65.6255 86.2111 58.5498 94.5617 54.9051C102.912 51.2604 111.48 52.4258 113.698 57.5076Z" fill="#76B73A"/>
<path d="M112.364 64.8475C111.512 67.1872 109.875 69.1623 108.008 70.759C106.104 72.3268 103.961 73.6054 101.655 74.4641C99.3606 75.3341 96.9329 75.93 94.4562 75.964C92.0058 76.0243 89.436 75.6094 87.3189 74.2466C87.1554 74.1422 87.1089 73.9247 87.2132 73.7613C87.31 73.6104 87.5049 73.5589 87.6621 73.6356L87.6721 73.6406C89.739 74.6502 92.1051 74.8626 94.3946 74.7042C96.694 74.5144 98.9671 73.9612 101.116 73.0937C103.254 72.2086 105.314 71.1035 107.129 69.6728C108.963 68.276 110.584 66.58 111.724 64.5608L111.729 64.5533C111.825 64.3848 112.039 64.3245 112.208 64.42C112.359 64.5068 112.422 64.6891 112.364 64.8475Z" fill="#373131"/>
<path d="M75.0495 102.085C75.0495 102.085 74.9074 106.071 75.2745 107.538C75.6428 109.005 78.2541 104.087 78.2541 104.087L75.0495 102.085Z" fill="white"/>
<path d="M78.1775 104.116C78.1775 104.116 79.0538 108.18 79.8509 108.34C80.648 108.5 81.1257 104.037 81.1257 104.037L78.1775 104.116Z" fill="white"/>
<path d="M86.6074 100.94C86.6074 100.94 87.6559 104.789 87.632 106.3C87.6082 107.812 83.9433 103.621 83.9433 103.621L86.6074 100.94Z" fill="white"/>
<path d="M84.2438 103.658C84.2438 103.658 83.9031 107.802 83.1324 108.064C82.363 108.325 81.3095 103.962 81.3095 103.962L84.2438 103.658Z" fill="white"/>
<path d="M74.3179 100.372C75.0345 101.491 76.1371 102.371 77.3365 102.907C78.5472 103.453 79.9 103.658 81.2427 103.627C82.5691 103.589 83.893 103.235 84.9151 102.407C85.9448 101.605 86.6777 100.378 87.0172 99.087L87.0235 99.0644C87.0536 98.9513 87.1693 98.8834 87.2825 98.9135C87.3868 98.9412 87.4535 99.043 87.4384 99.1474C87.2372 100.607 86.5483 101.999 85.4054 102.993C84.289 104.034 82.7313 104.452 81.2729 104.518C79.8082 104.605 78.3134 104.315 76.9706 103.671C75.6543 102.982 74.5128 101.932 73.9281 100.545C73.8829 100.437 73.9332 100.313 74.0413 100.268C74.1381 100.227 74.2475 100.263 74.3015 100.348L74.3179 100.372Z" fill="#373131"/>
<path d="M74.8296 98.4093C75.0597 99.2365 74.8875 100.099 74.4701 100.838C74.074 101.586 73.37 102.183 72.5905 102.431C72.4761 102.468 72.3541 102.405 72.3189 102.29C72.2925 102.207 72.3189 102.119 72.3793 102.065L72.3868 102.059C72.9375 101.557 73.3825 101.043 73.683 100.422C73.9835 99.8086 74.1759 99.1335 74.406 98.4307L74.4147 98.4017C74.4525 98.2873 74.5744 98.2257 74.6888 98.2622C74.7592 98.2836 74.8095 98.3414 74.8296 98.4093Z" fill="#373131"/>
<path d="M86.8172 97.7204C87.1428 98.3842 87.4282 99.0254 87.8117 99.5911C88.1964 100.164 88.7081 100.611 89.3242 101.031L89.3329 101.037C89.4323 101.105 89.4574 101.239 89.3895 101.337C89.3405 101.409 89.255 101.443 89.1745 101.429C88.3674 101.293 87.5867 100.802 87.09 100.115C86.5733 99.4415 86.2816 98.613 86.3935 97.7618C86.4086 97.6424 86.518 97.5594 86.6374 97.5745C86.7116 97.5846 86.772 97.6311 86.8034 97.6927L86.8172 97.7204Z" fill="#373131"/>
</svg>
